<?xml version="1.0" encoding="UTF-8"?>
<svg version="1.1" xmlns="http://www.w3.org/2000/svg" width="302" height="303">
<path d="M0 0 C99.66 0 199.32 0 302 0 C302 99.99 302 199.98 302 303 C202.34 303 102.68 303 0 303 C0 203.01 0 103.02 0 0 Z " fill="#08CA8F" transform="translate(0,0)"/>
<path d="M0 0 C5.30563259 2.62869978 9.93683844 6.42309658 14.625 10 C15.28951172 10.50450684 15.95402344 11.00901367 16.63867188 11.52880859 C21.00652804 14.84620523 25.36129881 18.18019761 29.70751953 21.52587891 C31.37342085 22.80659092 33.04374474 24.08154624 34.71484375 25.35546875 C35.93880859 26.29326172 35.93880859 26.29326172 37.1875 27.25 C37.86941406 27.77078125 38.55132812 28.2915625 39.25390625 28.828125 C39.70636719 29.21484375 40.15882813 29.6015625 40.625 30 C40.625 30.33 40.625 30.66 40.625 31 C39.89796875 31.14695313 39.1709375 31.29390625 38.421875 31.4453125 C21.7888568 35.15575502 8.14942692 43.72321928 -1.375 58 C-6.33034465 66.32732473 -9.71588273 74.2057487 -10.375 84 C-10.45451904 84.9897583 -10.45451904 84.9897583 -10.53564453 85.99951172 C-11.87513745 104.51306748 -6.12995915 119.15064923 5.64453125 133.453125 C11.64573195 139.9998894 18.83656406 143.95544485 26.625 148 C27.35847656 148.3815625 28.09195313 148.763125 28.84765625 149.15625 C34.81495842 151.98907916 41.1389075 152.50408146 47.625 153 C44.46664354 156.26551499 41.29116436 159.13379955 37.625 161.8125 C33.55713859 164.81040282 29.52211599 167.83986642 25.5234375 170.9296875 C24.61464844 171.62989014 23.70585937 172.33009277 22.76953125 173.05151367 C20.96447025 174.44365742 19.1622387 175.83947998 17.36328125 177.23950195 C0.54673338 190.16738165 0.54673338 190.16738165 -11.0078125 189.55859375 C-20.19132884 188.03511018 -26.90465118 181.06416624 -33.86328125 175.30175781 C-39.02906792 171.03280911 -44.33295839 167.00649129 -49.75 163.0625 C-56.74882156 157.96076646 -63.63485476 152.74248352 -70.45117188 147.3996582 C-76.33891988 142.78908872 -82.28776849 138.26367797 -88.25 133.75 C-94.95206737 128.66939077 -101.52340096 123.49549519 -107.92578125 118.04296875 C-110.18468926 116.15874405 -112.49223067 114.41055906 -114.875 112.6875 C-119.58908384 109.20572853 -122.47995359 105.57272122 -124.375 100 C-124.7109375 97.16796875 -124.7109375 97.16796875 -124.75 94.1875 C-124.79253906 92.72376953 -124.79253906 92.72376953 -124.8359375 91.23046875 C-123.85317322 84.34279029 -120.72679604 79.71776445 -115.30029297 75.48779297 C-114.66494629 75.01744629 -114.02959961 74.54709961 -113.375 74.0625 C-112.71000488 73.55090332 -112.04500977 73.03930664 -111.35986328 72.51220703 C-109.37639457 70.99219666 -107.37814142 69.49394593 -105.375 68 C-104.3093875 67.19468262 -103.24424134 66.38874757 -102.1796875 65.58203125 C-100.22490159 64.10942587 -98.2652366 62.64327514 -96.30078125 61.18359375 C-92.78736091 58.56142824 -89.3161658 55.88697045 -85.84521484 53.20898438 C-80.70290863 49.24534064 -75.54033081 45.30857626 -70.375 41.375 C-69.03356934 40.35321655 -69.03356934 40.35321655 -67.66503906 39.31079102 C-63.10788962 35.8402779 -58.54908373 32.37196098 -53.98828125 28.90625 C-52.22133679 27.56252285 -50.45440956 26.21877304 -48.6875 24.875 C-47.82358643 24.21902832 -46.95967285 23.56305664 -46.06958008 22.88720703 C-41.79578006 19.63507901 -37.54576705 16.35806998 -33.3359375 13.0234375 C-32.12877075 12.07041748 -32.12877075 12.07041748 -30.8972168 11.09814453 C-29.39632452 9.91004932 -27.899983 8.71617011 -26.40942383 7.51513672 C-17.9807836 0.84876657 -10.78768164 -3.19635011 0 0 Z " fill="#F8AD0D" transform="translate(158.375,60)"/>
<path d="M0 0 C1.08843108 0.9035051 2.16074731 1.82667133 3.21875 2.765625 C4.44099708 3.78720713 5.66502371 4.80666312 6.890625 5.82421875 C7.51904297 6.3538623 8.14746094 6.88350586 8.79492188 7.42919922 C11.93069715 10.01502 15.19989885 12.41439076 18.46875 14.828125 C25.11170142 19.77484838 31.66927383 24.82437634 38.19140625 29.92919922 C41.6173449 32.60981715 45.04877056 35.27719437 48.53515625 37.87890625 C62.77174578 48.52478168 62.77174578 48.52478168 65.71875 56.015625 C66.53549331 62.76161058 67.04172671 69.96035071 63.40625 75.953125 C59.37430819 81.02158016 54.02624984 84.41067044 48.71875 88.015625 C47.16591552 89.18848367 45.62345579 90.37525653 44.09375 91.578125 C43.36929688 92.14660156 42.64484375 92.71507812 41.8984375 93.30078125 C41.17914063 93.86667969 40.45984375 94.43257813 39.71875 95.015625 C37.46385228 96.77161678 35.20684719 98.52486453 32.94921875 100.27734375 C31.5097825 101.39914608 30.07455074 102.52637432 28.64453125 103.66015625 C5.9744694 121.55316256 5.9744694 121.55316256 -4.9453125 120.48046875 C-21.70731138 118.14478038 -36.24357357 107.26778391 -46.28125 94.015625 C-46.90580078 93.21705078 -46.90580078 93.21705078 -47.54296875 92.40234375 C-56.28373596 79.96674119 -58.47065645 65.8199393 -57.28125 51.015625 C-57.20777344 49.92378906 -57.13429687 48.83195312 -57.05859375 47.70703125 C-55.32779454 32.72666566 -45.80630468 19.05319467 -34.40234375 9.60546875 C-25.43897974 2.88707252 -11.00636325 -6.6562292 0 0 Z " fill="#FDFEFD" transform="translate(204.28125,92.984375)"/>
<path d="M0 0 C99.66 0 199.32 0 302 0 C302 99.99 302 199.98 302 303 C202.34 303 102.68 303 0 303 C0 203.01 0 103.02 0 0 Z M54 9 C50.96974198 9.53821001 47.92923012 9.96556821 44.8828125 10.40234375 C41.81986187 10.84980475 41.81986187 10.84980475 39 13 C38.05125 13.309375 37.1025 13.61875 36.125 13.9375 C33.0678054 14.97694617 30.63459582 16.1402853 28 18 C28 18.66 28 19.32 28 20 C27.41734375 20.2578125 26.8346875 20.515625 26.234375 20.78125 C23.8197097 22.09834017 22.18259823 23.55088384 20.25 25.5 C19.63640625 26.1084375 19.0228125 26.716875 18.390625 27.34375 C16.78565912 28.89484277 16.78565912 28.89484277 17 31 C16.34 31 15.68 31 15 31 C13.69103224 33.59662674 12.40322079 36.20077205 11.125 38.8125 C10.76019531 39.53115234 10.39539063 40.24980469 10.01953125 40.99023438 C4.2776296 52.83943141 4.69686309 65.21486233 4.69360352 78.07885742 C4.68597061 79.99538492 4.67754119 81.91190938 4.66838074 83.82843018 C4.64654104 89.00844599 4.63765112 94.18840282 4.63255429 99.36845946 C4.62889835 102.61247619 4.62265194 105.85647775 4.6155529 109.10048866 C4.5910954 120.43980201 4.57801443 131.77906984 4.57446289 143.1184082 C4.57083008 153.65269679 4.54094321 164.18669361 4.49905831 174.72089309 C4.46425732 183.79476061 4.44891276 192.86853186 4.44821686 201.9424656 C4.44742742 207.34874622 4.43884262 212.75472912 4.41021919 218.16094017 C4.38386972 223.25093457 4.38192677 228.34038791 4.39787483 233.43041992 C4.39967594 235.28622439 4.39312137 237.14206121 4.37705612 238.99779701 C4.22475068 257.75149536 8.10033957 273.30988031 20.9375 287.6875 C30.92626758 297.23003398 44.82034028 302.31828243 58.48510742 302.27415466 C59.30144779 302.27939134 60.11778816 302.28462802 60.95886612 302.29002339 C63.67445094 302.30493758 66.38984591 302.30572665 69.10546875 302.30639648 C71.06096206 302.31402397 73.01645239 302.32245247 74.97193909 302.33161926 C80.27196325 302.35351833 85.57192973 302.36235748 90.87199402 302.36744571 C94.18953122 302.37109598 97.50705348 302.37733966 100.82458496 302.3844471 C112.41675475 302.40892971 124.0088799 302.42199005 135.60107422 302.42553711 C146.37557733 302.42916711 157.14979467 302.45902728 167.92421055 302.50094169 C177.1975911 302.53574107 186.47087743 302.55108725 195.74432278 302.55178314 C201.27248842 302.55257294 206.80036301 302.56117365 212.32846069 302.58978081 C217.53578252 302.61612571 222.74257545 302.61807565 227.94993401 302.60212517 C229.8492747 302.60032343 231.74864696 302.6068845 233.64792061 302.62294388 C252.3819995 302.77154927 268.90938517 299.06269854 283.125 285.96484375 C293.88748073 274.68666082 299.34007922 259.94106779 299.26069641 244.48161316 C299.26452196 243.67384676 299.26834751 242.86608036 299.27228898 242.03383619 C299.28252733 239.35346268 299.27864441 236.67330707 299.2746582 233.99291992 C299.27900979 232.06034651 299.28419443 230.12777483 299.29014587 228.19520569 C299.3034999 222.96367525 299.30411848 217.73221721 299.30158257 212.50067306 C299.30051029 208.12468365 299.30540288 203.74870874 299.310188 199.37272245 C299.32127103 189.04363655 299.32172754 178.71458701 299.31567383 168.38549805 C299.30963618 157.75013628 299.32194257 147.11490689 299.3432439 136.47956771 C299.36089128 127.33022128 299.36685626 118.18091686 299.36360615 109.03155404 C299.36179795 103.57515474 299.36438306 98.11884985 299.37832069 92.66246605 C299.39094528 87.52828708 299.38891125 82.39431357 299.37590981 77.26013756 C299.37355444 75.38331532 299.37624114 73.50647841 299.38453293 71.629673 C299.46150461 52.84265417 296.51090136 37.046871 283 23 C274.27552465 15.33449545 265.55306214 9.90956638 253.8125 9.17578125 C252 9 252 9 250 8 C247.44541974 7.90224943 244.91811137 7.86543999 242.36326599 7.87301636 C241.56597 7.87145637 240.768674 7.86989638 239.94721752 7.86828911 C237.26093576 7.86428296 234.57470997 7.86746727 231.88842773 7.87060547 C229.96859707 7.86925127 228.04876667 7.86747123 226.12893677 7.86529541 C220.90394163 7.86072362 215.67896617 7.86250952 210.45397067 7.8656745 C204.99715034 7.86819903 199.54033174 7.86586033 194.08351135 7.86428833 C184.9193593 7.86246707 175.75521529 7.86487198 166.59106445 7.86962891 C155.98010057 7.87507306 145.3691559 7.87330758 134.75819248 7.8678025 C125.663518 7.86327208 116.56884932 7.86262042 107.47417408 7.86524117 C102.03538101 7.86680413 96.59659699 7.86699717 91.15780449 7.86370468 C86.04679459 7.86082694 80.93580959 7.86279986 75.8248024 7.86859894 C73.94336679 7.86992699 72.0619291 7.86953166 70.18049431 7.86733627 C67.62355088 7.86462657 65.06668855 7.86800364 62.50975037 7.87301636 C61.75529253 7.87078564 61.00083469 7.86855491 60.2235145 7.86625659 C56.82453219 7.57602918 56.82453219 7.57602918 54 9 Z " fill="#FDFEFE" transform="translate(0,0)"/>
<path d="M0 0 C7.64750408 5.40021121 13.34128997 11.87553218 15.8125 21 C15.874375 21.99 15.93625 22.98 16 24 C16.061875 24.65355469 16.12375 25.30710938 16.1875 25.98046875 C16.72854588 35.53331013 12.98141697 43.8333117 6.9140625 51.0625 C0.38128333 57.67527239 -8.21915045 61.04799227 -17.4375 61.4375 C-27.22068266 61.08323433 -33.60422452 57.00795597 -40.7734375 50.609375 C-46.4433153 43.9646761 -47.64751069 38.04843627 -47.5 29.4375 C-47.51546875 28.53064453 -47.5309375 27.62378906 -47.546875 26.68945312 C-47.48704271 16.37586194 -42.41421388 10.78750167 -35.53125 3.3984375 C-26.63296471 -5.03296245 -10.66104271 -5.28023342 0 0 Z " fill="#04AB86" transform="translate(225,123)"/>
<path d="M0 0 C0.2475 0.94875 0.495 1.8975 0.75 2.875 C1.63509713 6.04339117 2.82306721 8.98062395 4.125 12 C5.82702501 16.17885246 6.54736263 19.43864473 6 24 C5.67 24.58136719 5.34 25.16273438 5 25.76171875 C3.20280667 29.78434288 3.64139481 34.24072051 3.5390625 38.58984375 C2.91381542 42.54521115 1.62094613 44.05585435 -1 47 C-1.70491267 49.32206525 -2.37212429 51.65593068 -3 54 C-5.40422711 58.68824287 -9.17681105 65.58840553 -14 68 C-14.2475 69.134375 -14.495 70.26875 -14.75 71.4375 C-16 75 -16 75 -18.8125 76.5 C-22.70622791 77.11078085 -25.55076772 77.04718719 -28.81640625 74.6875 C-29.39261719 74.130625 -29.96882813 73.57375 -30.5625 73 C-33.94012033 69.8728116 -37.46226517 67.14218524 -41.1875 64.4375 C-47.16527339 59.99751447 -51.56896791 56.21974617 -54 49 C-54.3359375 46.16796875 -54.3359375 46.16796875 -54.375 43.1875 C-54.40335938 42.21167969 -54.43171875 41.23585937 -54.4609375 40.23046875 C-53.44048821 33.07867586 -50.13486304 28.5494204 -44.51171875 24.17773438 C-43.84785156 23.68595703 -43.18398438 23.19417969 -42.5 22.6875 C-41.83613281 22.17638672 -41.17226563 21.66527344 -40.48828125 21.13867188 C-39.21885802 20.16443389 -37.94344283 19.19793528 -36.66113281 18.24072266 C-35.32678144 17.2440775 -34.01163393 16.22174577 -32.703125 15.19140625 C-31 14 -31 14 -28.25 13.25 C-24.38319261 11.76276639 -22.17308349 9.64359569 -19.13671875 6.890625 C-12.76682651 1.25437665 -8.60326803 -2.18992277 0 0 Z " fill="#FEFDFB" transform="translate(88,111)"/>
<path d="M0 0 C0.99 0 1.98 0 3 0 C3 0.66 3 1.32 3 2 C3.99 2 4.98 2 6 2 C6 1.34 6 0.68 6 0 C7.32 0.33 8.64 0.66 10 1 C10 1.99 10 2.98 10 4 C12.475 4.495 12.475 4.495 15 5 C14.67 6.65 14.34 8.3 14 10 C14.99 10 15.98 10 17 10 C17 11.32 17 12.64 17 14 C16.01 14 15.02 14 14 14 C14.33 15.98 14.66 17.96 15 20 C13.35 20 11.7 20 10 20 C10 21.32 10 22.64 10 24 C8.68 24 7.36 24 6 24 C6 23.34 6 22.68 6 22 C5.01 22 4.02 22 3 22 C3 22.66 3 23.32 3 24 C1.68 24 0.36 24 -1 24 C-1 22.68 -1 21.36 -1 20 C-2.65 20 -4.3 20 -6 20 C-5.67 18.02 -5.34 16.04 -5 14 C-5.99 14 -6.98 14 -8 14 C-8 12.68 -8 11.36 -8 10 C-7.01 10 -6.02 10 -5 10 C-5.33 8.35 -5.66 6.7 -6 5 C-4.35 4.67 -2.7 4.34 -1 4 C-0.67 2.68 -0.34 1.36 0 0 Z " fill="#F1FAF8" transform="translate(214,130)"/>
<path d="M0 0 C0.66 0.33 1.32 0.66 2 1 C0.47005208 2.20442708 -1.05989583 3.40885417 -2.58984375 4.61328125 C-4.27155077 6.05683091 -4.27155077 6.05683091 -5 9 C-5.99 9.33 -6.98 9.66 -8 10 C-9.44110208 12.97892424 -9.44110208 12.97892424 -10.625 16.5 C-12.93220339 22.93220339 -12.93220339 22.93220339 -14 24 C-14.15714654 25.63256758 -14.25085414 27.27135338 -14.31640625 28.91015625 C-14.35830078 29.89951172 -14.40019531 30.88886719 -14.44335938 31.90820312 C-14.48267578 32.94912109 -14.52199219 33.99003906 -14.5625 35.0625 C-14.60568359 36.10728516 -14.64886719 37.15207031 -14.69335938 38.22851562 C-14.79981225 40.81886884 -14.9018276 43.40932186 -15 46 C-19.20704266 42.80512636 -21.78607363 40.21988339 -23 35 C-23.85982161 27.37694743 -23.38633211 21.41336733 -19 15 C-16.68565298 12.62611124 -14.16050372 10.65833917 -11.5 8.6875 C-10.83613281 8.17638672 -10.17226563 7.66527344 -9.48828125 7.13867188 C-7.67011278 5.74329108 -5.83889244 4.36789107 -4 3 C-3.1853125 2.38769531 -2.370625 1.77539062 -1.53125 1.14453125 C-1.0259375 0.76683594 -0.520625 0.38914062 0 0 Z " fill="#F5AE12" transform="translate(57,125)"/>
<path d="M0 0 C0.33 0.66 0.66 1.32 1 2 C0.22265625 3.9453125 0.22265625 3.9453125 -0.9375 6.125 C-1.31777344 6.84945312 -1.69804688 7.57390625 -2.08984375 8.3203125 C-2.39019531 8.87460938 -2.69054687 9.42890625 -3 10 C-2.34 10 -1.68 10 -1 10 C-1 12.31 -1 14.62 -1 17 C-1.33 17 -1.66 17 -2 17 C-2 15.02 -2 13.04 -2 11 C-8.76502267 10.43376462 -11.97682662 11.59679265 -17.25 15.75 C-17.848125 16.1934375 -18.44625 16.636875 -19.0625 17.09375 C-22.28677886 19.51909251 -25.22390825 22.0589919 -28 25 C-28.99 24.67 -29.98 24.34 -31 24 C-20.83611108 15.76374519 -10.51015273 7.78939046 0 0 Z " fill="#ECB62B" transform="translate(90,100)"/>
<path d="M0 0 C0.75 1.625 0.75 1.625 1 4 C-2.04518143 9.50475105 -6.04996776 14.57591279 -12 17 C-10.75304528 13.25913583 -8.80733432 11.74204747 -6 9 C-3.54851116 6.12825593 -1.53574788 3.45543273 0 0 Z " fill="#FBC452" transform="translate(85,164)"/>
<path d="M0 0 C0 0.99 0 1.98 0 3 C-2.06800878 4.79365098 -4.10170615 6.40240189 -6.3125 8 C-11.42674198 11.68450199 -11.42674198 11.68450199 -16 16 C-16.99 15.67 -17.98 15.34 -19 15 C-16.58414878 13.06148147 -14.16717498 11.12436757 -11.75 9.1875 C-11.06808594 8.64029297 -10.38617188 8.09308594 -9.68359375 7.52929688 C-6.48995837 4.97128795 -3.29844388 2.42282604 0 0 Z " fill="#D8B52D" transform="translate(78,109)"/>
<path d="M0 0 C0.75 1.5625 0.75 1.5625 1 4 C-0.13084437 6.50286409 -1.52139516 8.67007722 -3 11 C-3.33 11 -3.66 11 -4 11 C-4.36630156 7.06225823 -4.30233203 5.43460229 -2 2.125 C-1.34 1.42375 -0.68 0.7225 0 0 Z " fill="#FCD27A" transform="translate(90,153)"/>
<path d="M0 0 C0.66 0.33 1.32 0.66 2 1 C0.47005208 2.20442708 -1.05989583 3.40885417 -2.58984375 4.61328125 C-4.27155077 6.05683091 -4.27155077 6.05683091 -5 9 C-6.32 8.34 -7.64 7.68 -9 7 C-6.03 4.69 -3.06 2.38 0 0 Z " fill="#D8B732" transform="translate(57,125)"/>
<path d="M0 0 C0.33 1.65 0.66 3.3 1 5 C-1.375 4.6875 -1.375 4.6875 -4 4 C-4.66 3.01 -5.32 2.02 -6 1 C-4 0 -4 0 0 0 Z " fill="#E9CE74" transform="translate(70,187)"/>
<path d="M0 0 C0.66 0.33 1.32 0.66 2 1 C-0.97 3.97 -3.94 6.94 -7 10 C-7 7 -7 7 -4.625 4.4375 C-3.75875 3.633125 -2.8925 2.82875 -2 2 C-1.34 1.34 -0.68 0.68 0 0 Z " fill="#CEB223" transform="translate(44,135)"/>
<path d="M0 0 C-0.33 1.32 -0.66 2.64 -1 4 C-1 3.01 -1 2.02 -1 1 C-1.928125 1.20625 -2.85625 1.4125 -3.8125 1.625 C-7 2 -7 2 -10 0 C-6.7169902 -1.6415049 -3.57454967 -0.51888624 0 0 Z " fill="#FDEDCC" transform="translate(88,111)"/>
</svg>
